# xmcd CD Database Entry
#
# Track frame offsets:
# 150
# 17942
# 38316
# 56321
# 72580
# 104127
# 120409
# 139166
# 167046
# 186203
# 202867
# 223874
# 245939
# 264866
# 282170
#
# Disc length: 4131 seconds
#
# Revision: 2
# Processed by: cddbd v1.4b41PL1 Copyright (c) Steve Scherf et al.
# Submitted via: tcd 2.0b
#
DISCID=df10210f
DTITLE=Alphaville - First harvest 1984-1992
DYEAR=1900
DGENRE=
TTITLE0=Big in Japan
TTITLE1=Sounds like a melody
TTITLE2=Sensations
TTITLE3=The mysteries of love
TTITLE4=Lassie come home
TTITLE5=Jerusalem
TTITLE6=Dance with me
TTITLE7=For a million
TTITLE8=A victory of love
TTITLE9=The jet set
TTITLE10=Red rose
TTITLE11=Romeos
TTITLE12=Summer rain
TTITLE13=Forever young
TTITLE14=Big in Japan [Culture mix]
EXTD=
EXTT0=
EXTT1=
EXTT2=
EXTT3=
EXTT4=
EXTT5=
EXTT6=
EXTT7=
EXTT8=
EXTT9=
EXTT10=
EXTT11=
EXTT12=
EXTT13=
EXTT14=
PLAYORDER=
